#!OML:ASF G:\JayActor3\Patient Classification 1\Patient 1\Session 6\male.ASF
:FULLY-SPECIFIED
:DEGREES
1319
root 12.1116 15.0525 -14.9592 196.064 -53.2808 -182.759
lowerback 35.5297 0.937972 3.35094
upperback 18.7962 -1.8237 0.255971
thorax 2.79086 -2.12572 -1.04228
lowerneck 2.76834 -2.61092 3.00633
upperneck -26.5526 -3.35581 5.49758
head -8.67998 -3.13211 1.73281
rclavicle 2.20651e-014 3.01159e-014
rhumerus 41.646 -5.78654 -40.4207
rradius 69.6085
rwrist -9.74774
rhand -24.1238 -11.7645
rfingers 7.12502
rthumb 2.35783 -41.7312
lclavicle 2.20651e-014 3.01159e-014
lhumerus -2.28251 -13.9254 67.8846
lradius 66.2717
lwrist 31.0728
lhand -16.2657 10.5016
lfingers 7.12502
lthumb 9.9438 40.2467
rfemur -49.6224 -10.0817 22.402
rtibia 69.4202
rfoot -32.0533 -20.065
rtoes -7.89292
lfemur -54.1028 13.5976 -29.72
ltibia 57.0367
lfoot -16.5428 6.43369
ltoes -2.3937
1320
root 12.0843 15.0546 -14.9675 196.068 -53.1775 -182.745
lowerback 35.5371 1.0426 3.20822
upperback 18.812 -1.74295 0.203953
thorax 2.80511 -2.0951 -1.04548
lowerneck 2.76807 -2.60984 2.99584
upperneck -26.5398 -3.35242 5.50236
head -8.67513 -3.12844 1.73531
rclavicle -2.80286e-014 1.22253e-014
rhumerus 41.6677 -5.98938 -40.2889
rradius 69.5928
rwrist -9.74093
rhand -24.1251 -11.7663
rfingers 7.12502
rthumb 2.35652 -41.733
lclavicle -2.80286e-014 1.22253e-014
lhumerus -2.17117 -13.8235 67.8131
lradius 66.3683
lwrist 31.1644
lhand -16.3855 10.4984
lfingers 7.12502
lthumb 9.82827 40.249
rfemur -49.7421 -10.0367 22.3406
rtibia 69.7358
rfoot -31.8146 -20.0507
rtoes -8.40781
lfemur -54.0229 13.6436 -29.7335
ltibia 57.082
lfoot -16.6174 6.52018
ltoes -2.61286
1321
root 12.0577 15.0573 -14.9755 196.06 -53.0555 -182.709
lowerback 35.5391 1.15488 3.07485
upperback 18.8295 -1.65099 0.14828
thorax 2.82343 -2.05805 -1.06077
lowerneck 2.75748 -2.60344 3.01128
upperneck -26.5168 -3.34296 5.48977
head -8.66595 -3.12201 1.72645
rclavicle 2.78299e-015 4.86029e-014
rhumerus 41.6926 -6.20554 -40.1707
rradius 69.5852
rwrist -9.73678
rhand -24.132 -11.7643
rfingers 7.12502
rthumb 2.34986 -41.7311
lclavicle 2.78299e-015 4.86029e-014
lhumerus -2.06209 -13.7181 67.7359
lradius 66.4751
lwrist 31.2688
lhand -16.538 10.5055
lfingers 7.12502
lthumb 9.68111 40.263
rfemur -49.9104 -9.98753 22.2947
rtibia 70.0896
rfoot -31.5031 -20.0358
rtoes -8.98025
lfemur -53.9516 13.692 -29.7332
ltibia 57.1253
lfoot -16.6899 6.6277
ltoes -2.82815
1322
root 12.0316 15.0603 -14.9831 196.048 -52.9175 -182.656
lowerback 35.5349 1.27043 2.94137
upperback 18.8434 -1.55429 0.0941121
thorax 2.83982 -2.01859 -1.07574
lowerneck 2.74445 -2.5893 3.02877
upperneck -26.4855 -3.32434 5.46722
head -8.65378 -3.10981 1.71275
rclavicle -2.90226e-014 -3.52843e-015
rhumerus 41.7324 -6.41728 -40.0626
rradius 69.5885
rwrist -9.73433
rhand -24.1363 -11.7976
rfingers 7.12502
rthumb 2.34574 -41.7644
lclavicle -2.90226e-014 -3.52843e-015
lhumerus -1.97317 -13.6 67.6622
lradius 66.5929
lwrist 31.3833
lhand -16.751 10.5252
lfingers 7.12502
lthumb 9.4756 40.2921
rfemur -50.1362 -9.93907 22.2622
rtibia 70.4865
rfoot -31.1124 -20.0268
rtoes -9.62027
lfemur -53.8897 13.7424 -29.7259
ltibia 57.1607
lfoot -16.7739 6.74594
ltoes -2.9607
1323
root 12.0064 15.0637 -14.9903 196.043 -52.7676 -182.595
lowerback 35.5235 1.38649 2.80656
upperback 18.8527 -1.4561 0.0395034
thorax 2.85359 -1.9781 -1.09083
lowerneck 2.73176 -2.56866 3.0441
upperneck -26.4513 -3.29643 5.44524
head -8.64074 -3.09286 1.69878
rclavicle -5.14852e-014 7.38982e-014
rhumerus 41.7859 -6.62427 -39.9718
rradius 69.6045
rwrist -9.73048
rhand -24.1358 -11.8364
rfingers 7.12502
rthumb 2.34625 -41.8032
lclavicle -5.14852e-014 7.38982e-014
lhumerus -1.9033 -13.4739 67.587
lradius 66.7178
lwrist 31.5073
lhand -17.0165 10.5541
lfingers 7.12502
lthumb 9.21946 40.3326
rfemur -50.4222 -9.89243 22.2386
rtibia 70.9265
rfoot -30.6508 -20.0206
rtoes -10.2825
lfemur -53.8362 13.7957 -29.7185
ltibia 57.1825
lfoot -16.8717 6.87363
ltoes -3.0398
1324
root 11.9819 15.0676 -14.9974 196.048 -52.6135 -182.535
lowerback 35.506 1.49812 2.68507
upperback 18.857 -1.35768 -0.022203
thorax 2.86374 -1.93528 -1.12023
lowerneck 2.73374 -2.55061 3.06629
upperneck -26.4242 -3.26764 5.43391
head -8.63288 -3.07747 1.68781
rclavicle 3.83654e-014 1.57537e-014
rhumerus 41.8353 -6.83373 -39.905
rradius 69.6348
rwrist -9.72924
rhand -24.1457 -11.8855
rfingers 7.12502
rthumb 2.33665 -41.8525
lclavicle 3.83654e-014 1.57537e-014
lhumerus -1.84311 -13.3662 67.4969
lradius 66.8419
lwrist 31.639
lhand -17.3183 10.5783
lfingers 7.12502
lthumb 8.92819 40.3694
rfemur -50.7611 -9.85583 22.2184
rtibia 71.4071
rfoot -30.1319 -19.999
rtoes -10.912
lfemur -53.7843 13.8492 -29.7149
ltibia 57.1851
lfoot -16.9768 7.00142
ltoes -3.06632
1325
root 11.9582 15.0723 -15.0043 196.069 -52.4627 -182.488
lowerback 35.4919 1.6015 2.57143
upperback 18.8566 -1.2658 -0.0874463
thorax 2.8673 -1.89447 -1.15526
lowerneck 2.74144 -2.53683 3.08412
upperneck -26.3976 -3.24142 5.43751
head -8.62581 -3.06438 1.68299
rclavicle -9.34288e-015 -3.23025e-014
rhumerus 41.8877 -7.0405 -39.8598
rradius 69.6808
rwrist -9.73736
rhand -24.1654 -11.9441
rfingers 7.12502
rthumb 2.3176 -41.9112
lclavicle -9.34288e-015 -3.23025e-014
lhumerus -1.78867 -13.2687 67.3975
lradius 66.9551
lwrist 31.7647
lhand -17.6311 10.6016
lfingers 7.12502
lthumb 8.62637 40.4053
rfemur -51.1436 -9.83446 22.1935
rtibia 71.9211
rfoot -29.5558 -19.9726
rtoes -11.4969
lfemur -53.7274 13.9001 -29.7209
ltibia 57.1656
lfoot -17.0829 7.12415
ltoes -3.06691
1326
root 11.9355 15.0774 -15.0109 196.103 -52.3207 -182.451
lowerback 35.48 1.69228 2.4638
upperback 18.8532 -1.1869 -0.150271
thorax 2.86667 -1.85961 -1.18703
lowerneck 2.75639 -2.52619 3.0806
upperneck -26.3728 -3.21824 5.45552
head -8.61985 -3.05224 1.68712
rclavicle 3.71727e-014 -4.07509e-015
rhumerus 41.9588 -7.23626 -39.83
rradius 69.737
rwrist -9.7544
rhand -24.2079 -11.9911
rfingers 7.12502
rthumb 2.27656 -41.9587
lclavicle 3.71727e-014 -4.07509e-015
lhumerus -1.7389 -13.1639 67.2986
lradius 67.0482
lwrist 31.8737
lhand -17.9203 10.6186
lfingers 7.12502
lthumb 8.34723 40.4337
rfemur -51.5656 -9.82909 22.1666
rtibia 72.4623
rfoot -28.9336 -19.9362
rtoes -11.9822
lfemur -53.6675 13.9512 -29.7346
ltibia 57.1231
lfoot -17.1757 7.2321
ltoes -3.06554
1327
root 11.9137 15.0835 -15.0173 196.151 -52.1885 -182.436
lowerback 35.4796 1.77114 2.36499
upperback 18.8487 -1.12028 -0.213779
thorax 2.86074 -1.83022 -1.22034
lowerneck 2.7697 -2.52265 3.07284
upperneck -26.3445 -3.20495 5.47702
head -8.61207 -3.04458 1.69377
rclavicle 2.78299e-014 1.45113e-014
rhumerus 42.0409 -7.42881 -39.8147
rradius 69.7987
rwrist -9.78541
rhand -24.2891 -11.9893
rfingers 7.12502
rthumb 2.19815 -41.9577
lclavicle 2.78299e-014 1.45113e-014
lhumerus -1.6821 -13.0629 67.1982
lradius 67.1123
lwrist 31.9536
lhand -18.1681 10.6281
lfingers 7.12502
lthumb 8.10808 40.4526
rfemur -52.0148 -9.8428 22.1292
rtibia 73.0213
rfoot -28.2677 -19.8972
rtoes -12.3624
lfemur -53.5964 14.0039 -29.7625
ltibia 57.0568
lfoot -17.251 7.3212
ltoes -3.08215
1328
root 11.8928 15.0904 -15.0235 196.215 -52.0657 -182.444
lowerback 35.4888 1.83835 2.27493
upperback 18.8464 -1.06661 -0.276285
thorax 2.85381 -1.80698 -1.25343
lowerneck 2.77267 -2.52476 3.06471
upperneck -26.3109 -3.20286 5.48952
head -8.60048 -3.04114 1.69791
rclavicle -1.35174e-014 1.80894e-014
rhumerus 42.1383 -7.62074 -39.8185
rradius 69.8625
rwrist -9.8138
rhand -24.381 -11.957
rfingers 7.12502
rthumb 2.10939 -41.9264
lclavicle -1.35174e-014 1.80894e-014
lhumerus -1.61079 -12.9613 67.0995
lradius 67.1394
lwrist 32.0004
lhand -18.3614 10.6313
lfingers 7.12502
lthumb 7.92157 40.4629
rfemur -52.4828 -9.87457 22.0803
rtibia 73.5874
rfoot -27.5598 -19.8668
rtoes -12.6394
lfemur -53.5136 14.0635 -29.8069
ltibia 56.9682
lfoot -17.3068 7.38741
ltoes -3.14254
